<svg width="24" height="24" viewBox="0 0 24 24" fill="none" xmlns="http://www.w3.org/2000/svg">
<path fill-rule="evenodd" clip-rule="evenodd" d="M21.0186 1.81915H2.25494C1.61229 1.81915 1.09131 2.34013 1.09131 2.98279V21.7464C1.09131 22.3891 1.61229 22.9101 2.25494 22.9101H12.364V14.7537H9.61858V11.561H12.364V9.21188C12.364 6.48824 14.0295 5.00461 16.4586 5.00461C17.2771 5.00282 18.0952 5.04409 18.9095 5.12824V7.97551H17.2368C15.9131 7.97551 15.6549 8.60097 15.6549 9.5246V11.5573H18.8186L18.4077 14.7501H15.6368V22.9101H21.0186C21.6612 22.9101 22.1822 22.3891 22.1822 21.7464V2.98279C22.1822 2.34013 21.6612 1.81915 21.0186 1.81915Z" fill="white"/>
</svg>
