<svg width="24" height="24" viewBox="0 0 24 24" fill="none" xmlns="http://www.w3.org/2000/svg">
<path fill-rule="evenodd" clip-rule="evenodd" d="M7.83136 1.88131C8.95579 1.83001 9.3148 1.81787 12.1779 1.81787C15.0409 1.81787 15.3999 1.83001 16.5244 1.88131C17.6465 1.93249 18.4128 2.11072 19.0834 2.37134C19.7766 2.64071 20.3645 3.00118 20.9506 3.58725C21.5367 4.17336 21.8971 4.76127 22.1666 5.4545C22.4271 6.12506 22.6054 6.8914 22.6565 8.01349C22.7079 9.13792 22.72 9.49693 22.72 12.36C22.72 15.2231 22.7079 15.5821 22.6565 16.7065C22.6054 17.8286 22.4271 18.5949 22.1666 19.2655C21.8971 19.9587 21.5367 20.5466 20.9506 21.1327C20.3645 21.7188 19.7766 22.0793 19.0834 22.3487C18.4128 22.6093 17.6465 22.7875 16.5244 22.8387C15.3999 22.89 15.0409 22.9021 12.1779 22.9021C9.3148 22.9021 8.95579 22.89 7.83136 22.8387C6.70927 22.7875 5.94293 22.6093 5.27237 22.3487C4.57914 22.0793 3.99123 21.7188 3.40512 21.1327C2.81905 20.5466 2.45858 19.9587 2.18921 19.2655C1.92859 18.5949 1.75036 17.8286 1.69918 16.7065C1.64788 15.5821 1.63574 15.2231 1.63574 12.36C1.63574 9.49693 1.64788 9.13792 1.69918 8.01349C1.75036 6.8914 1.92859 6.12506 2.18921 5.4545C2.45858 4.76127 2.81905 4.17336 3.40512 3.58725C3.99123 3.00118 4.57914 2.64071 5.27237 2.37134C5.94293 2.11072 6.70927 1.93249 7.83136 1.88131ZM18.3953 4.1418C18.0239 3.99743 17.4657 3.82569 16.4378 3.77882C15.3262 3.7281 14.9927 3.71735 12.1779 3.71735C9.36302 3.71735 9.02959 3.7281 7.91796 3.77882C6.89011 3.82569 6.33192 3.99743 5.96044 4.1418C5.46836 4.33304 5.11718 4.56149 4.7483 4.93041C4.37938 5.29929 4.15093 5.65047 3.95969 6.14255C3.81532 6.51403 3.64358 7.07223 3.59671 8.10007C3.54599 9.2117 3.53524 9.54513 3.53524 12.36C3.53524 15.1749 3.54599 15.5083 3.59671 16.6199C3.64358 17.6478 3.81532 18.206 3.95969 18.5774C4.15093 19.0695 4.37942 19.4207 4.7483 19.7896C5.11718 20.1585 5.46836 20.3869 5.96044 20.5782C6.33192 20.7226 6.89011 20.8943 7.91796 20.9412C9.02946 20.9919 9.36281 21.0026 12.1779 21.0026C14.993 21.0026 15.3263 20.9919 16.4378 20.9412C17.4657 20.8943 18.0239 20.7226 18.3953 20.5782C18.8874 20.3869 19.2386 20.1585 19.6075 19.7896C19.9764 19.4207 20.2048 19.0695 20.3961 18.5774C20.5404 18.206 20.7122 17.6478 20.7591 16.6199C20.8098 15.5083 20.8205 15.1749 20.8205 12.36C20.8205 9.54513 20.8098 9.2117 20.7591 8.10007C20.7122 7.07223 20.5404 6.51403 20.3961 6.14255C20.2048 5.65047 19.9764 5.29929 19.6075 4.93041C19.2386 4.56149 18.8874 4.33304 18.3953 4.1418ZM12.1779 6.94648C9.18807 6.94648 6.76437 9.37017 6.76437 12.36C6.76437 15.3498 9.18807 17.7735 12.1779 17.7735C15.1677 17.7735 17.5914 15.3498 17.5914 12.36C17.5914 9.37017 15.1677 6.94648 12.1779 6.94648ZM8.66382 12.36C8.66382 14.3008 10.2371 15.874 12.1779 15.874C14.1186 15.874 15.6919 14.3008 15.6919 12.36C15.6919 10.4192 14.1186 8.84595 12.1779 8.84595C10.2371 8.84595 8.66382 10.4192 8.66382 12.36ZM17.8053 7.99763C18.5039 7.99763 19.0703 7.43127 19.0703 6.7326C19.0703 6.03392 18.5039 5.46752 17.8053 5.46752C17.1066 5.46752 16.5402 6.03392 16.5402 6.7326C16.5402 7.43127 17.1066 7.99763 17.8053 7.99763Z" fill="white"/>
</svg>
