<svg width="33" height="33" viewBox="0 0 33 33" fill="none" xmlns="http://www.w3.org/2000/svg">
<path fill-rule="evenodd" clip-rule="evenodd" d="M23.1545 25.79H20.027V20.8945C20.027 19.7275 20.0059 18.2265 18.4005 18.2265C16.7741 18.2265 16.5257 19.499 16.5257 20.8113V25.79H13.4005V15.7249H16.398V17.1005H16.4413C16.8596 16.3096 17.8791 15.4753 19.4012 15.4753C22.5697 15.4753 23.1545 17.5587 23.1545 20.27V25.79ZM9.87345 14.3505C8.86806 14.3505 8.05719 13.5373 8.05719 12.5355C8.05719 11.5349 8.86806 10.7217 9.87345 10.7217C10.873 10.7217 11.6862 11.5349 11.6862 12.5355C11.6862 13.5373 10.873 14.3505 9.87345 14.3505ZM8.30562 25.79H11.4378V15.7249H8.30562V25.79ZM24.7117 7.81818H6.73659C5.87885 7.81818 5.18164 8.49894 5.18164 9.33906V27.387C5.18164 28.2271 5.87885 28.9091 6.73659 28.9091H24.7117C25.5718 28.9091 26.2725 28.2271 26.2725 27.387V9.33906C26.2725 8.49894 25.5718 7.81818 24.7117 7.81818Z" fill="white"/>
</svg>
