<?xml version="1.0" encoding="utf-8"?>
<!-- Generator: Adobe Illustrator 24.0.1, SVG Export Plug-In . SVG Version: 6.00 Build 0)  -->
<svg version="1.1" id="Layer_1" xmlns="http://www.w3.org/2000/svg" xmlns:xlink="http://www.w3.org/1999/xlink" x="0px" y="0px"
	 viewBox="0 0 841.89 595.28" style="enable-background:new 0 0 841.89 595.28;" xml:space="preserve">
<style type="text/css">
	.st0{fill:#231F20;}
</style>
<g>
	<path class="st0" d="M136.58,313.6c-2.92,0-5.57-0.68-7.96-2.05c-2.39-1.37-4.26-3.25-5.63-5.66c-1.37-2.41-2.05-5.07-2.05-7.98
		c0-4.41,1.49-8.09,4.48-11.04c2.99-2.95,6.72-4.43,11.21-4.43c3.83,0,7.11,1.1,9.84,3.31c2.73,2.21,4.46,5.13,5.19,8.78h-7.93
		c-0.66-1.42-1.61-2.54-2.87-3.36c-1.26-0.82-2.69-1.23-4.29-1.23c-2.15,0-3.95,0.77-5.39,2.3c-1.44,1.53-2.16,3.44-2.16,5.74
		c0,2.3,0.73,4.23,2.19,5.8c1.46,1.57,3.24,2.35,5.36,2.35c1.6,0,3.02-0.43,4.26-1.28c1.24-0.86,2.2-2.09,2.9-3.69h8.04
		c-0.73,3.75-2.48,6.77-5.25,9.05C143.76,312.46,140.44,313.6,136.58,313.6z"/>
	<path class="st0" d="M180.57,309.97c-2.53,2.42-5.89,3.64-10.06,3.64c-4.17,0-7.53-1.22-10.06-3.66c-2.53-2.44-3.8-5.65-3.8-9.62
		v-17.06h7.98v16.13c0,2.11,0.52,3.76,1.56,4.95c1.04,1.19,2.48,1.78,4.32,1.78c1.84,0,3.28-0.59,4.32-1.78
		c1.04-1.18,1.56-2.83,1.56-4.95v-16.13h7.98v17.06C184.37,304.33,183.1,307.54,180.57,309.97z"/>
	<path class="st0" d="M203.56,294.57c0.98,0.18,1.7,0.32,2.16,0.41c0.46,0.09,1.15,0.26,2.08,0.52c0.93,0.26,1.64,0.51,2.13,0.77
		c0.49,0.26,1.07,0.62,1.75,1.09c0.67,0.47,1.18,0.98,1.53,1.53c0.35,0.55,0.65,1.23,0.9,2.05c0.25,0.82,0.38,1.72,0.38,2.71
		c0,3.03-1.13,5.44-3.39,7.24c-2.26,1.8-5.25,2.71-8.97,2.71c-3.72,0-6.71-0.97-8.97-2.9c-2.26-1.93-3.41-4.48-3.44-7.65h7.76
		c0.04,1.28,0.5,2.25,1.39,2.93c0.89,0.67,2.07,1.01,3.53,1.01c1.2,0,2.2-0.25,3.01-0.77c0.8-0.51,1.2-1.24,1.2-2.19
		c0-0.47-0.14-0.89-0.41-1.26c-0.27-0.36-0.7-0.66-1.29-0.9c-0.58-0.24-1.17-0.43-1.75-0.57c-0.58-0.15-1.33-0.29-2.24-0.44
		c-1.2-0.18-2.2-0.36-2.98-0.55c-0.78-0.18-1.71-0.5-2.79-0.96c-1.08-0.46-1.93-0.97-2.57-1.56c-0.64-0.58-1.19-1.38-1.67-2.41
		c-0.47-1.02-0.71-2.2-0.71-3.55c0-2.77,1.09-5.03,3.28-6.78c2.19-1.75,5.06-2.62,8.61-2.62c3.55,0,6.42,0.9,8.58,2.71
		c2.17,1.8,3.25,4.18,3.25,7.13h-7.6c0-2.33-1.48-3.5-4.43-3.5c-1.24,0-2.21,0.26-2.9,0.77c-0.69,0.51-1.04,1.2-1.04,2.08
		c0,0.36,0.1,0.7,0.3,1.01c0.2,0.31,0.44,0.56,0.71,0.74c0.27,0.18,0.7,0.36,1.28,0.52c0.58,0.16,1.07,0.28,1.48,0.36
		C202.15,294.32,202.76,294.43,203.56,294.57z M234.5,305.67h3.61v7.11h-5.69c-3.24,0-5.8-0.94-7.65-2.82
		c-1.86-1.88-2.79-4.46-2.79-7.74v-12.58h-5.36v-1.69l11.65-12.41h1.53v7.71h8.15v6.4h-7.98v11.54c0,1.42,0.39,2.52,1.18,3.31
		C231.92,305.28,233.05,305.67,234.5,305.67z"/>
	<path class="st0" d="M258.01,313.6c-3.03,0-5.76-0.67-8.2-2.02c-2.44-1.35-4.35-3.22-5.71-5.6c-1.37-2.39-2.05-5.04-2.05-7.96
		c0-4.48,1.51-8.2,4.54-11.15c3.02-2.95,6.83-4.43,11.43-4.43c4.56,0,8.35,1.48,11.37,4.43c3.03,2.95,4.54,6.67,4.54,11.15
		c0,4.45-1.52,8.16-4.57,11.13C266.31,312.12,262.53,313.6,258.01,313.6z M258.01,306.11c2.3,0,4.17-0.76,5.63-2.27
		c1.46-1.51,2.19-3.45,2.19-5.82c0-2.37-0.73-4.31-2.19-5.82c-1.46-1.51-3.34-2.27-5.66-2.27c-2.31,0-4.2,0.76-5.66,2.27
		c-1.46,1.51-2.19,3.45-2.19,5.82c0,1.17,0.19,2.26,0.57,3.28c0.38,1.02,0.92,1.88,1.61,2.57c0.69,0.69,1.52,1.24,2.49,1.64
		C255.78,305.91,256.85,306.11,258.01,306.11z"/>
	<path class="st0" d="M313.23,282.55c3.06,0,5.57,1.09,7.52,3.28c1.95,2.19,2.92,4.99,2.92,8.42v18.53h-7.98v-17.22
		c0-4.01-1.5-6.01-4.48-6.01c-1.17,0-2.18,0.28-3.03,0.85c-0.86,0.57-1.5,1.39-1.94,2.49c-0.44,1.09-0.66,2.41-0.66,3.94v15.96
		h-7.82v-17.22c0-4.01-1.44-6.01-4.32-6.01c-1.82,0-3.24,0.64-4.26,1.91c-1.02,1.28-1.53,3.06-1.53,5.36v15.96h-7.98v-29.52h5.58
		l1.48,3.66c1.09-1.35,2.41-2.41,3.96-3.2c1.55-0.78,3.18-1.18,4.89-1.18c1.86,0,3.53,0.42,5.03,1.26c1.49,0.84,2.66,2,3.5,3.5
		c0.36-0.51,0.75-0.97,1.15-1.39c0.4-0.42,0.84-0.8,1.31-1.15c0.47-0.35,0.97-0.66,1.48-0.93c0.51-0.27,1.05-0.5,1.61-0.68
		c0.56-0.18,1.15-0.33,1.75-0.44C312,282.6,312.61,282.55,313.23,282.55z"/>
	<path class="st0" d="M359.6,297.91c0,0.77-0.05,1.55-0.16,2.35h-22.31c0.33,2,1.12,3.55,2.38,4.62c1.26,1.08,2.87,1.61,4.84,1.61
		c1.35,0,2.57-0.3,3.66-0.9c1.09-0.6,1.95-1.43,2.57-2.49H359c-1.09,3.21-2.95,5.76-5.58,7.65c-2.62,1.9-5.65,2.84-9.08,2.84
		c-4.37,0-8.02-1.49-10.94-4.48c-2.92-2.99-4.37-6.69-4.37-11.1c0-1.75,0.25-3.43,0.74-5.03c0.49-1.6,1.2-3.04,2.13-4.32
		c0.93-1.28,2.01-2.38,3.25-3.31c1.24-0.93,2.64-1.65,4.21-2.16c1.57-0.51,3.23-0.77,4.98-0.77c2.95,0,5.6,0.69,7.96,2.08
		c2.35,1.39,4.16,3.26,5.41,5.63C358.97,292.52,359.6,295.1,359.6,297.91z M344.34,289.22c-1.79,0-3.29,0.49-4.51,1.48
		c-1.22,0.98-2.05,2.35-2.49,4.1h14.27c-0.36-1.2-0.89-2.21-1.59-3.03c-0.69-0.82-1.52-1.45-2.49-1.89
		C346.58,289.44,345.51,289.22,344.34,289.22z"/>
	<path class="st0" d="M380.37,283.09H383v7.55h-3.44c-2.26,0-3.87,0.53-4.84,1.59c-0.97,1.06-1.45,2.79-1.45,5.19v15.36h-7.98
		v-29.52h5.14l1.42,3.61C373.85,284.35,376.69,283.09,380.37,283.09z"/>
	<g>
		<path class="st0" d="M403.84,323.42v-7.33h2.57c2.88,0,4.32-1.46,4.32-4.37v-28.49h7.98v29.09c0,3.24-1.03,5.91-3.09,7.98
			c-2.06,2.08-4.73,3.12-8.01,3.12H403.84z M410.78,279.29v-7.44h7.93v7.44H410.78z"/>
		<path class="st0" d="M440.41,313.58c-3.03,0-5.76-0.67-8.2-2.02c-2.44-1.35-4.35-3.22-5.71-5.6c-1.37-2.39-2.05-5.04-2.05-7.96
			c0-4.48,1.51-8.2,4.54-11.15c3.02-2.95,6.83-4.43,11.43-4.43c4.56,0,8.35,1.48,11.37,4.43c3.03,2.95,4.54,6.67,4.54,11.15
			c0,4.45-1.52,8.16-4.57,11.13C448.72,312.09,444.93,313.58,440.41,313.58z M440.41,306.08c2.3,0,4.17-0.76,5.63-2.27
			c1.46-1.51,2.19-3.45,2.19-5.82c0-2.37-0.73-4.31-2.19-5.82c-1.46-1.51-3.34-2.27-5.66-2.27c-2.31,0-4.2,0.76-5.66,2.27
			c-1.46,1.51-2.19,3.45-2.19,5.82c0,1.17,0.19,2.26,0.57,3.28c0.38,1.02,0.92,1.88,1.61,2.57c0.69,0.69,1.52,1.24,2.49,1.64
			C438.18,305.89,439.25,306.08,440.41,306.08z"/>
		<path class="st0" d="M485.6,309.94c-2.53,2.42-5.89,3.64-10.06,3.64c-4.17,0-7.53-1.22-10.06-3.66c-2.53-2.44-3.8-5.65-3.8-9.62
			v-17.06h7.98v16.13c0,2.11,0.52,3.76,1.56,4.95c1.04,1.19,2.48,1.78,4.32,1.78c1.84,0,3.28-0.59,4.32-1.78
			c1.04-1.18,1.56-2.83,1.56-4.95v-16.13h7.98v17.06C489.4,304.3,488.14,307.52,485.6,309.94z"/>
		<path class="st0" d="M511.76,283.07h2.62v7.55h-3.44c-2.26,0-3.87,0.53-4.84,1.59c-0.97,1.06-1.45,2.79-1.45,5.19v15.36h-7.98
			v-29.52h5.14l1.42,3.61C505.24,284.32,508.08,283.07,511.76,283.07z"/>
		<path class="st0" d="M535.77,282.52c3.35,0,6,1.12,7.96,3.36c1.95,2.24,2.93,5.24,2.93,8.99v17.88h-7.98v-16.62
			c0-4.41-1.71-6.62-5.14-6.62c-1.35,0-2.52,0.31-3.53,0.93c-1,0.62-1.77,1.51-2.3,2.68c-0.53,1.17-0.79,2.53-0.79,4.1v15.53h-7.98
			v-29.52h5.47l1.59,3.66c0.55-0.69,1.18-1.3,1.89-1.83c0.71-0.53,1.48-0.98,2.32-1.37c0.84-0.38,1.72-0.67,2.65-0.87
			C533.77,282.62,534.75,282.52,535.77,282.52z"/>
		<path class="st0" d="M582.62,297.88c0,0.77-0.05,1.55-0.16,2.35h-22.31c0.33,2,1.12,3.55,2.38,4.62c1.26,1.08,2.87,1.61,4.84,1.61
			c1.35,0,2.57-0.3,3.66-0.9c1.09-0.6,1.95-1.43,2.57-2.49h8.42c-1.09,3.21-2.95,5.76-5.58,7.65c-2.62,1.9-5.65,2.84-9.08,2.84
			c-4.37,0-8.02-1.49-10.94-4.48c-2.92-2.99-4.37-6.69-4.37-11.1c0-1.75,0.25-3.43,0.74-5.03c0.49-1.6,1.2-3.04,2.13-4.32
			c0.93-1.28,2.01-2.38,3.25-3.31c1.24-0.93,2.64-1.65,4.21-2.16c1.57-0.51,3.23-0.77,4.98-0.77c2.95,0,5.6,0.69,7.96,2.08
			c2.35,1.39,4.16,3.26,5.41,5.63C581.99,292.49,582.62,295.08,582.62,297.88z M567.37,289.19c-1.79,0-3.29,0.49-4.51,1.48
			c-1.22,0.98-2.05,2.35-2.49,4.1h14.27c-0.36-1.2-0.89-2.21-1.59-3.03c-0.69-0.82-1.52-1.45-2.49-1.89
			C569.6,289.41,568.53,289.19,567.37,289.19z"/>
		<path class="st0" d="M607.55,283.23h8.53l-12.9,29.14c-1.82,4.08-3.68,6.94-5.58,8.58c-1.9,1.64-4.47,2.46-7.71,2.46h-3.28v-7.22
			h2.79c1.9,0,3.24-0.35,4.05-1.04c0.8-0.69,1.68-2.17,2.62-4.43l0.11-0.22l-12.52-27.28h8.69l7.87,18.15L607.55,283.23z"/>
	</g>
	<g>
		<path class="st0" d="M635.98,312.72v-40.19h7.98v40.19H635.98z"/>
		<path class="st0" d="M675.73,283.14h5.96v29.52h-6.29l-0.66-2.62c-2.7,2.33-5.89,3.5-9.57,3.5c-4.45,0-8.14-1.49-11.07-4.46
			c-2.93-2.97-4.4-6.7-4.4-11.18c0-4.45,1.47-8.15,4.4-11.1c2.93-2.95,6.62-4.43,11.07-4.43c3.75,0,6.98,1.2,9.68,3.61
			L675.73,283.14z M660.07,303.7c1.51,1.53,3.43,2.3,5.74,2.3c2.31,0,4.24-0.77,5.77-2.3c1.53-1.53,2.3-3.46,2.3-5.8
			c0-2.33-0.77-4.26-2.3-5.8c-1.53-1.53-3.44-2.3-5.74-2.3c-1.53,0-2.91,0.36-4.13,1.07c-1.22,0.71-2.18,1.68-2.87,2.9
			c-0.69,1.22-1.04,2.6-1.04,4.13C657.8,300.23,658.55,302.17,660.07,303.7z"/>
		<path class="st0" d="M705.42,282.37c4.48,0,8.19,1.48,11.13,4.43c2.93,2.95,4.4,6.67,4.4,11.15c0,4.48-1.47,8.2-4.4,11.15
			c-2.93,2.95-6.64,4.43-11.13,4.43c-3.54,0-6.62-1.09-9.24-3.28l-0.93,2.46h-5.9v-40.19h7.98v12.25
			C699.69,283.18,702.39,282.37,705.42,282.37z M699.02,303.7c1.53,1.53,3.45,2.3,5.77,2.3c2.31,0,4.23-0.77,5.74-2.3
			c1.51-1.53,2.27-3.44,2.27-5.74c0-1.53-0.34-2.92-1.01-4.16c-0.67-1.24-1.63-2.21-2.87-2.9c-1.24-0.69-2.62-1.04-4.13-1.04
			c-1.51,0-2.89,0.35-4.13,1.04c-1.24,0.69-2.21,1.66-2.9,2.9c-0.69,1.24-1.04,2.62-1.04,4.16
			C696.72,300.25,697.49,302.17,699.02,303.7z"/>
	</g>
</g>
</svg>
