<svg id="Layer_1" data-name="Layer 1" xmlns="http://www.w3.org/2000/svg" xmlns:xlink="http://www.w3.org/1999/xlink" viewBox="0 0 567.66 437.64"><defs><style>.cls-1{fill:url(#linear-gradient);}.cls-2{fill:url(#linear-gradient-2);}.cls-3{fill:#fff;}</style><linearGradient id="linear-gradient" x1="833.78" y1="629.99" x2="1119.83" y2="916.04" gradientTransform="matrix(1, 0.05, -0.05, 1, 33, -103)" gradientUnits="userSpaceOnUse"><stop offset="0.01" stop-color="#7af498"/><stop offset="1" stop-color="#276280"/></linearGradient><linearGradient id="linear-gradient-2" x1="1186.99" y1="644.39" x2="1115.99" y2="767.37" xlink:href="#linear-gradient"/></defs><title>CJL_logo_main_white_RGB</title><path class="cls-1" d="M1022.45,771.77a183.48,183.48,0,0,1-32-2.85c-34.7-6.12-66.61-20.36-97.46-34.13-6.25-2.79-12.71-5.67-19-8.41-34.28-14.86-71.08-28.21-108-25.27-38.46,3-57.9,26.09-64.48,35.85l-28.2-19c9.33-13.85,36.77-46.53,90-50.76,44.46-3.53,87.75,12.16,124.22,28,6.49,2.81,13,5.74,19.36,8.56,30.31,13.53,58.94,26.31,89.52,31.7,39.44,7,75.87-1.69,97.44-23.14a82.26,82.26,0,0,0,6.29-7q-7.23-5.76-14.59-12.32c-25.44-22.67-39.64-46.73-42.22-71.51a71,71,0,0,1,15.43-51.23c9.8-12,23-19.37,37.29-20.74,14.84-1.44,29.87,3.61,42.32,14.21a72.43,72.43,0,0,1,22.89,36.38c7.12,27.1-.29,54.05-7.54,74.5-2.2,6.19-4.94,13.39-8.43,21,13.16,7.92,25.75,13.2,38,16,19.31,4.36,35.24,1.93,51.2-1.18l6.5,33.37c-18,3.52-39.46,6.78-65.19,1-15.71-3.55-31.54-10.12-47.79-19.87a115.5,115.5,0,0,1-10.17,11.63C1094.72,759.35,1060.45,771.77,1022.45,771.77ZM1101,583.22a16.51,16.51,0,0,0-1.72.09c-6.61.64-11.4,4.93-14.25,8.42a36.82,36.82,0,0,0-7.93,26.2c1.67,16.09,12.11,32.79,31,49.64q4.5,4,8.9,7.65,2.34-5.62,4.61-12c5.62-15.85,11.46-36.36,6.69-54.48C1125,596,1113.43,583.22,1101,583.22Z" transform="translate(-673.29 -334.13)"/><path class="cls-2" d="M1204,747.76c-32.24,0-69.54-11.21-118.47-54.81-25.44-22.67-39.64-46.73-42.22-71.51a71,71,0,0,1,15.43-51.23c9.8-12,23-19.37,37.29-20.74,14.84-1.44,29.87,3.61,42.32,14.21a72.43,72.43,0,0,1,22.89,36.38c7.12,27.1-.29,54.05-7.54,74.5-2.72,7.67-5.51,14.62-8.44,21,40.08,24.18,66.8,19.06,89.25,14.75l6.4,33.4C1229.13,745.94,1217,747.76,1204,747.76ZM1101,583.22a16.51,16.51,0,0,0-1.72.09c-6.61.64-11.4,4.93-14.25,8.42a36.82,36.82,0,0,0-7.93,26.2c1.67,16.09,12.11,32.79,31,49.64q4.54,4,8.9,7.65c1.55-3.74,3.08-7.74,4.61-12,5.62-15.85,11.46-36.36,6.69-54.48C1125,596,1113.43,583.22,1101,583.22Z" transform="translate(-673.29 -334.13)"/><path class="cls-3" d="M764.57,397.79a26.26,26.26,0,0,1-13.31-3.43,24.74,24.74,0,0,1-9.42-9.46,26.55,26.55,0,0,1-3.43-13.36,24.92,24.92,0,0,1,7.5-18.48,27.37,27.37,0,0,1,35.21-1.87,24.32,24.32,0,0,1,8.69,14.68H776.55a13.21,13.21,0,0,0-4.8-5.63,12.86,12.86,0,0,0-7.18-2.05,11.86,11.86,0,0,0-9,3.84,13.46,13.46,0,0,0-3.61,9.6,13.7,13.7,0,0,0,3.65,9.7,11.78,11.78,0,0,0,9,3.93,12.18,12.18,0,0,0,7.13-2.15,14,14,0,0,0,4.85-6.17H790a25.08,25.08,0,0,1-25.43,20.85Z" transform="translate(-673.29 -334.13)"/><path class="cls-3" d="M838.16,391.71q-6.36,6.09-16.83,6.08t-16.84-6.13q-6.35-6.12-6.35-16.09V347h13.35v27q0,5.31,2.61,8.28a10.27,10.27,0,0,0,14.45,0q2.61-3,2.61-8.28V347h13.35v28.54Q844.51,385.62,838.16,391.71Z" transform="translate(-673.29 -334.13)"/><path class="cls-3" d="M876.62,366l3.61.69q1.14.23,3.48.87a18.31,18.31,0,0,1,3.56,1.28,24.14,24.14,0,0,1,2.93,1.83,9.14,9.14,0,0,1,2.56,2.56,14.5,14.5,0,0,1,1.51,3.43,15.07,15.07,0,0,1,.64,4.53,14.69,14.69,0,0,1-5.67,12.11q-5.67,4.53-15,4.53t-15-4.85a16.27,16.27,0,0,1-5.76-12.8h13A6,6,0,0,0,868.8,385a9.52,9.52,0,0,0,5.9,1.69,9.14,9.14,0,0,0,5-1.28,4.08,4.08,0,0,0,2-3.65,3.4,3.4,0,0,0-.69-2.11,4.88,4.88,0,0,0-2.15-1.51,23.7,23.7,0,0,0-2.92-1c-1-.24-2.23-.49-3.75-.73-2-.3-3.68-.61-5-.91a30.15,30.15,0,0,1-4.66-1.6,15.21,15.21,0,0,1-4.3-2.61,12.47,12.47,0,0,1-2.79-4,14,14,0,0,1-1.19-5.94,13.84,13.84,0,0,1,5.49-11.34q5.49-4.4,14.4-4.39t14.36,4.52A14.77,14.77,0,0,1,894,362.12H881.28q0-5.85-7.41-5.85a8,8,0,0,0-4.84,1.28,4.08,4.08,0,0,0-1.74,3.47,3.07,3.07,0,0,0,.5,1.69A4.28,4.28,0,0,0,869,364a8.24,8.24,0,0,0,2.15.87c1,.27,1.8.47,2.47.59Zm51.77,18.57h6v11.89h-9.52q-8.13,0-12.8-4.71t-4.67-12.94v-21h-9v-2.84L918,334.13h2.56V347h13.63v10.7H920.8V377a7.47,7.47,0,0,0,2,5.53A7.59,7.59,0,0,0,928.39,384.53Z" transform="translate(-673.29 -334.13)"/><path class="cls-3" d="M967.72,397.79A28,28,0,0,1,954,394.41a24.36,24.36,0,0,1-9.56-9.38A26.36,26.36,0,0,1,941,371.72a25,25,0,0,1,7.59-18.66q7.59-7.41,19.12-7.4t19,7.4a26.62,26.62,0,0,1,0,37.28A26.09,26.09,0,0,1,967.72,397.79Zm0-12.53a12.51,12.51,0,0,0,9.42-3.79,14.8,14.8,0,0,0,0-19.49,13.71,13.71,0,0,0-18.93,0,13.46,13.46,0,0,0-3.66,9.74,15.45,15.45,0,0,0,1,5.49,11.85,11.85,0,0,0,2.7,4.3,12.61,12.61,0,0,0,4.16,2.74A13.67,13.67,0,0,0,967.72,385.26Z" transform="translate(-673.29 -334.13)"/><path class="cls-3" d="M1060.1,345.84a16.07,16.07,0,0,1,12.58,5.49q4.89,5.49,4.9,14.08v31h-13.36V367.61q0-10.07-7.5-10.06a9.08,9.08,0,0,0-5.08,1.41,8.7,8.7,0,0,0-3.24,4.17,17.73,17.73,0,0,0-1.1,6.58v26.71h-13.08V367.61q0-10.07-7.23-10.06a8.59,8.59,0,0,0-7.13,3.2q-2.57,3.19-2.56,9v26.71h-13.36V347h9.33l2.47,6.13a20.27,20.27,0,0,1,6.63-5.36,17.93,17.93,0,0,1,8.19-2,17,17,0,0,1,8.42,2.1,15,15,0,0,1,5.85,5.86,21.6,21.6,0,0,1,1.92-2.34,16.19,16.19,0,0,1,2.2-1.92,20.44,20.44,0,0,1,2.47-1.55,16.49,16.49,0,0,1,2.69-1.15,25.09,25.09,0,0,1,2.93-.73A17.41,17.41,0,0,1,1060.1,345.84Z" transform="translate(-673.29 -334.13)"/><path class="cls-3" d="M1137.67,371.54a29.51,29.51,0,0,1-.27,3.93h-37.32a12.31,12.31,0,0,0,4,7.73,12,12,0,0,0,8.1,2.7,12.46,12.46,0,0,0,6.13-1.51,11,11,0,0,0,4.3-4.16h14.08a25.31,25.31,0,0,1-24.51,17.56,24.48,24.48,0,0,1-18.29-7.5,25.55,25.55,0,0,1-7.32-18.57,28.62,28.62,0,0,1,1.23-8.41,24.66,24.66,0,0,1,3.57-7.23,26.18,26.18,0,0,1,5.44-5.53,23.73,23.73,0,0,1,7-3.61,26.49,26.49,0,0,1,8.32-1.28,25.69,25.69,0,0,1,13.31,3.47,23.62,23.62,0,0,1,9,9.42A27.24,27.24,0,0,1,1137.67,371.54ZM1112.15,357a11.64,11.64,0,0,0-7.55,2.47,12.31,12.31,0,0,0-4.16,6.86h23.87a13.85,13.85,0,0,0-2.65-5.08,11.81,11.81,0,0,0-4.16-3.16A12.86,12.86,0,0,0,1112.15,357Z" transform="translate(-673.29 -334.13)"/><path class="cls-3" d="M1172.43,346.75h4.39v12.63h-5.77q-5.67,0-8.09,2.65c-1.62,1.77-2.42,4.66-2.42,8.69v25.7h-13.36V347h8.6l2.38,6Q1163.19,346.76,1172.43,346.75Z" transform="translate(-673.29 -334.13)"/><path class="cls-3" d="M731.18,521.31V509.05h4.3q7.23,0,7.23-7.31V454.08h13.35v48.66a18.17,18.17,0,0,1-5.17,13.36q-5.16,5.21-13.4,5.21Zm11.62-73.82V435.06h13.26v12.43Z" transform="translate(-673.29 -334.13)"/><path class="cls-3" d="M792.37,504.85a27.88,27.88,0,0,1-13.72-3.39,24.31,24.31,0,0,1-9.55-9.37,26.3,26.3,0,0,1-3.44-13.31,25,25,0,0,1,7.6-18.66q7.59-7.41,19.11-7.41t19,7.41a26.61,26.61,0,0,1,0,37.27A26.1,26.1,0,0,1,792.37,504.85Zm0-12.54a12.51,12.51,0,0,0,9.43-3.79,14.82,14.82,0,0,0,0-19.48,13.7,13.7,0,0,0-18.94,0,13.44,13.44,0,0,0-3.66,9.74,15.53,15.53,0,0,0,1,5.49,11.81,11.81,0,0,0,2.7,4.29,12.74,12.74,0,0,0,4.16,2.75A13.85,13.85,0,0,0,792.37,492.31Z" transform="translate(-673.29 -334.13)"/><path class="cls-3" d="M868,498.76q-6.36,6.09-16.83,6.09t-16.83-6.13q-6.36-6.14-6.35-16.1V454.08h13.35v27q0,5.31,2.61,8.28a10.27,10.27,0,0,0,14.45,0q2.61-3,2.61-8.28v-27h13.35v28.54Q874.33,492.68,868,498.76Z" transform="translate(-673.29 -334.13)"/><path class="cls-3" d="M911.74,453.81h4.39v12.62h-5.76q-5.67,0-8.1,2.65t-2.42,8.69v25.7H886.5V454.08h8.59l2.38,6Q902.5,453.81,911.74,453.81Z" transform="translate(-673.29 -334.13)"/><path class="cls-3" d="M951.9,452.89q8.42,0,13.3,5.63t4.9,15v29.91H956.74v-27.8q0-11.07-8.59-11.07a11,11,0,0,0-5.9,1.55,10,10,0,0,0-3.85,4.49,16.56,16.56,0,0,0-1.32,6.86v26H923.72V454.08h9.15l2.65,6.13a17,17,0,0,1,3.16-3.07,21.35,21.35,0,0,1,3.89-2.28,21.94,21.94,0,0,1,4.43-1.47A23.6,23.6,0,0,1,951.9,452.89Z" transform="translate(-673.29 -334.13)"/><path class="cls-3" d="M1030.28,478.59a29.65,29.65,0,0,1-.27,3.94H992.69a12.42,12.42,0,0,0,4,7.73,12,12,0,0,0,8.09,2.69,12.56,12.56,0,0,0,6.13-1.5,11.12,11.12,0,0,0,4.3-4.17h14.09a25.34,25.34,0,0,1-24.52,17.57,24.49,24.49,0,0,1-18.29-7.51,25.51,25.51,0,0,1-7.32-18.56,28.36,28.36,0,0,1,1.24-8.42,24.22,24.22,0,0,1,3.56-7.22,26,26,0,0,1,5.45-5.54,24,24,0,0,1,7-3.61,26.83,26.83,0,0,1,8.32-1.28,25.78,25.78,0,0,1,13.31,3.47,23.61,23.61,0,0,1,9.06,9.43A27.28,27.28,0,0,1,1030.28,478.59Zm-25.52-14.54a11.61,11.61,0,0,0-7.54,2.47,12.29,12.29,0,0,0-4.16,6.86h23.87a14.33,14.33,0,0,0-2.65-5.08,11.7,11.7,0,0,0-4.17-3.15A12.8,12.8,0,0,0,1004.76,464.05Z" transform="translate(-673.29 -334.13)"/><path class="cls-3" d="M1072,454.08h14.27l-21.58,48.75q-4.58,10.25-9.33,14.36c-3.18,2.75-7.47,4.12-12.9,4.12H1037V509.24h4.66c3.18,0,5.43-.58,6.77-1.74s2.81-3.63,4.4-7.41l.18-.37-21-45.64h14.54l13.18,30.37Z" transform="translate(-673.29 -334.13)"/><path class="cls-3" d="M741.61,610.53V543.3H755v67.23Z" transform="translate(-673.29 -334.13)"/><path class="cls-3" d="M808.11,561h10v49.39H807.56l-1.1-4.39a23.65,23.65,0,0,1-16,5.86,25,25,0,0,1-18.52-7.46q-7.36-7.46-7.36-18.7a25.25,25.25,0,0,1,25.88-26,23.47,23.47,0,0,1,16.19,6ZM781.9,595.43a13,13,0,0,0,9.61,3.85,13.54,13.54,0,1,0,0-27.08,13.53,13.53,0,0,0-6.9,1.78,12.87,12.87,0,0,0-4.81,4.85,13.77,13.77,0,0,0-1.73,6.91A13.21,13.21,0,0,0,781.9,595.43Z" transform="translate(-673.29 -334.13)"/><path class="cls-3" d="M857.77,559.76q11.25,0,18.62,7.41t7.36,18.66q0,11.25-7.36,18.66t-18.62,7.41a23.38,23.38,0,0,1-15.45-5.49l-1.56,4.12h-9.88V543.3h13.36v20.49A23.51,23.51,0,0,1,857.77,559.76Zm-10.7,35.67a13.42,13.42,0,0,0,23-9.6,14.27,14.27,0,0,0-1.69-7,12.11,12.11,0,0,0-4.8-4.85,14.57,14.57,0,0,0-13.81,0,12.36,12.36,0,0,0-4.85,4.85,14,14,0,0,0-1.74,7A13,13,0,0,0,847.07,595.43Z" transform="translate(-673.29 -334.13)"/></svg>