<svg width="1440" height="569" viewBox="0 0 1440 569" fill="none" xmlns="http://www.w3.org/2000/svg">
<path d="M-19 500.922C12.4422 450.195 77.056 389.385 184.274 376.94C291.335 364.494 398.238 397.892 498.696 437.277C599.154 476.661 698.512 522.82 805.258 537.786C912.004 552.752 1030.7 530.854 1104.43 452.085C1143.89 409.865 1167.32 354.884 1184.61 299.746C1202.37 243.347 1214.48 182.065 1197.5 125.509C1180.52 68.9528 1125.81 19.9585 1067.33 27.8354C1003.03 36.5 962.941 110.543 971.902 174.818C980.863 239.251 1026.14 292.814 1076.13 334.247C1258.65 485.798 1370.27 467.051 1458.94 446.414" stroke="url(#paint0_linear)" stroke-width="52" stroke-miterlimit="10"/>
<defs>
<linearGradient id="paint0_linear" x1="371.944" y1="61.0195" x2="1117.68" y2="820.494" gradientUnits="userSpaceOnUse">
<stop offset="0.005618" stop-color="#7AF498"/>
<stop offset="1" stop-color="#276280"/>
</linearGradient>
</defs>
</svg>
