<svg width="97" height="97" viewBox="0 0 97 97" fill="none" xmlns="http://www.w3.org/2000/svg">
<path fill-rule="evenodd" clip-rule="evenodd" d="M96.1299 0H21.5999V11.67C19.9812 11.2465 18.2876 11.1954 16.6464 11.5205C15.0051 11.8456 13.4589 12.5386 12.124 13.5472C10.789 14.5559 9.70012 15.854 8.93905 17.344C8.17798 18.834 7.76456 20.4772 7.72988 22.15V22.22V22.29C7.92958 26.09 9.23274 29.7493 11.4799 32.8201L12.8099 34.51L12.0399 34.67C8.55049 35.7702 5.50406 37.9568 3.34527 40.9108C1.18648 43.8647 0.0283339 47.4313 0.0398804 51.09V61.88C0.0425252 63.5845 0.720825 65.2185 1.92611 66.4238C3.1314 67.6291 4.76537 68.3074 6.4699 68.3101H7.75988V89.65C7.76253 91.3493 8.43872 92.9781 9.64025 94.1797C10.8418 95.3812 12.4707 96.0574 14.1699 96.0601C15.0375 96.0618 15.8962 95.8851 16.6927 95.541C17.4892 95.197 18.2064 94.6929 18.7999 94.0601C19.6808 94.9916 20.8212 95.6371 22.0733 95.9128C23.3253 96.1886 24.6314 96.0819 25.8222 95.6067C27.0129 95.1315 28.0335 94.3095 28.7516 93.2474C29.4698 92.1854 29.8524 90.9321 29.8499 89.65V51.5C29.8472 50.9273 29.9144 50.3565 30.0499 49.8H96.1299V0ZM11.1299 22.26C11.1638 20.2633 11.9783 18.3592 13.3988 16.9556C14.8193 15.5519 16.7329 14.7602 18.7299 14.75C19.7801 14.7477 20.8192 14.9658 21.7799 15.39C22.9597 15.9072 23.9911 16.7116 24.7799 17.73C25.5315 18.6964 26.033 19.8334 26.2399 21.04C26.2448 21.1166 26.2448 21.1934 26.2399 21.27V21.41C26.2399 21.5416 26.2565 21.687 26.2737 21.8375L26.2737 21.8375C26.2892 21.973 26.3052 22.1126 26.3099 22.25C26.3165 22.4413 26.3144 22.5542 26.3122 22.6721V22.6722C26.3111 22.733 26.3099 22.7951 26.3099 22.87V23.0601C25.8799 27.3001 22.4399 33.84 18.7599 33.84C17.0199 33.84 15.1099 32.35 13.5399 29.75C12.1119 27.4972 11.2729 24.9217 11.0999 22.26H11.1299ZM20.0199 48.9401L18.7899 50.17L17.5599 48.9401L18.5099 37.52H19.0699L20.0199 48.9401ZM26.2599 51.5701V89.72C26.2599 90.4732 25.9607 91.1955 25.4281 91.7281C24.8955 92.2607 24.1731 92.5601 23.4199 92.5601C22.6667 92.5601 21.9443 92.2607 21.4117 91.7281C20.8791 91.1955 20.5799 90.4732 20.5799 89.72V61.72H16.9999V89.72C16.9999 90.4705 16.7017 91.1905 16.171 91.7212C15.6403 92.2519 14.9204 92.55 14.1699 92.55C13.4193 92.55 12.6995 92.2519 12.1688 91.7212C11.6381 91.1905 11.3399 90.4705 11.3399 89.72V47.8201H7.7499V64.8201H6.42989C5.67668 64.8201 4.95432 64.5208 4.42172 63.9882C3.88911 63.4556 3.5899 62.7332 3.5899 61.98V51.1901C3.61081 47.989 4.74956 44.8959 6.80926 42.4454C8.86896 39.995 11.7201 38.3412 14.8699 37.77L13.8699 50.3301L18.7999 55.26L23.7499 50.3301L22.6699 37.55H26.9799C29.0232 37.5505 31.0269 36.9864 32.7699 35.92L49.7699 25.48C50.0523 25.306 50.3783 25.2158 50.7099 25.22C51.1899 25.22 51.6503 25.4107 51.9897 25.7501C52.3292 26.0896 52.5199 26.55 52.5199 27.03V27.63C52.5197 27.9328 52.4447 28.2309 52.3017 28.4978C52.1586 28.7647 51.9519 28.9922 51.6999 29.16L31.3399 42.3201C29.7801 43.309 28.4944 44.6746 27.6013 46.2911C26.7083 47.9077 26.2366 49.7232 26.2299 51.5701H26.2599ZM68.2599 36.85C65.3431 39.1517 61.6826 40.3021 57.9735 40.0828C54.2644 39.8634 50.765 38.2895 48.1399 35.66L53.5799 32.13C54.337 31.6419 54.9591 30.9711 55.389 30.1794C55.8189 29.3878 56.0427 28.5008 56.0399 27.6V27C56.0372 25.5686 55.4675 24.1967 54.4553 23.1846C53.4432 22.1724 52.0712 21.6026 50.6399 21.6C49.639 21.5973 48.6578 21.8782 47.8099 22.41L43.6999 24.9401C43.6872 21.2215 45.0444 17.6285 47.5124 14.8469C49.9804 12.0654 53.3863 10.2901 57.0799 9.85999V25.6801L68.2599 36.85ZM60.6699 23.14V9.85999C64.0472 10.276 67.1886 11.8089 69.5948 14.2151C72.001 16.6213 73.5339 19.7627 73.9499 23.14H60.6699ZM73.9499 26.73C73.624 29.5049 72.5295 32.1337 70.7899 34.3201L63.2099 26.73H73.9499ZM92.5699 46.28H32.0199C32.3863 45.9122 32.7845 45.5776 33.2099 45.28L45.0899 37.62C46.8326 39.541 48.9603 41.0734 51.3345 42.1176C53.7087 43.1617 56.2763 43.6941 58.8699 43.6801C62.722 43.7164 66.4935 42.5773 69.6814 40.4147C72.8693 38.252 75.322 35.1687 76.7122 31.576C78.1024 27.9834 78.3641 24.0523 77.4623 20.3071C76.5606 16.5619 74.5382 13.1808 71.665 10.6147C68.7919 8.04867 65.2046 6.4196 61.3817 5.94507C57.5588 5.47053 53.6821 6.173 50.2688 7.95874C46.8555 9.74448 44.0678 12.5286 42.2777 15.9397C40.4876 19.3507 39.7802 23.2266 40.2499 27.05L30.8499 32.8201C29.6767 33.5513 28.3222 33.9393 26.9399 33.9401H26.3299L25.2399 33.84L26.0499 33C28.2945 29.9286 29.5943 26.2691 29.7899 22.47C29.7935 22.4267 29.7935 22.3832 29.7899 22.34H29.5399L29.7999 22.25C29.7945 20.504 29.3736 18.7845 28.572 17.2334C27.7704 15.6823 26.6111 14.3443 25.1899 13.3301V3.57007H92.5699V46.28ZM40.6501 15.9402H32.69C31.3958 15.9402 30.1546 15.426 29.2394 14.5109C28.3242 13.5957 27.8101 12.3544 27.8101 11.0602C27.8101 9.76592 28.3242 8.52467 29.2394 7.6095C30.1546 6.69432 31.3958 6.18018 32.69 6.18018H35.7801C37.0726 6.18282 38.3113 6.69815 39.2243 7.61304C40.1373 8.52793 40.6501 9.76765 40.6501 11.0602V15.9402ZM35.7401 9.76013H32.6501V9.81018C32.3262 9.83866 32.0249 9.98734 31.8053 10.2271C31.5857 10.4668 31.464 10.78 31.464 11.1051C31.464 11.4302 31.5857 11.7434 31.8053 11.9832C32.0249 12.2229 32.3262 12.3717 32.6501 12.4001H37.0201V11.0602C37.0214 10.8908 36.9893 10.7227 36.9257 10.5657C36.8621 10.4087 36.7682 10.2657 36.6493 10.145C36.5304 10.0243 36.389 9.92822 36.2329 9.86218C36.0769 9.79614 35.9095 9.76144 35.7401 9.76013ZM95.5223 80.9486C95.9772 81.8327 96.2518 82.7985 96.3301 83.7897L96.3601 94.4797C96.37 94.7029 96.3334 94.9259 96.2524 95.1342C96.1715 95.3426 96.0481 95.5317 95.8901 95.6898C95.7321 95.8478 95.5429 95.9712 95.3346 96.0521C95.1262 96.133 94.9034 96.1697 94.6801 96.1597H34.4001C34.1768 96.1697 33.9539 96.133 33.7456 96.0521C33.5373 95.9712 33.3481 95.8478 33.19 95.6898C33.032 95.5317 32.9086 95.3426 32.8277 95.1342C32.7468 94.9259 32.7102 94.7029 32.7201 94.4797V83.8397C32.7626 82.8227 33.0187 81.8262 33.4718 80.9147C33.925 80.0033 34.5649 79.1975 35.3501 78.5498C37.3013 76.9632 39.5382 75.765 41.9401 75.0197C39.8207 72.0041 38.597 68.4508 38.4101 64.7697C38.4273 61.8523 39.6028 59.0613 41.6779 57.0106C43.753 54.9599 46.5577 53.8175 49.4751 53.8348C52.3925 53.852 55.1835 55.0274 57.2342 57.1025C59.2849 59.1776 60.4273 61.9823 60.4101 64.8997C60.2232 68.5808 58.9995 72.1341 56.8801 75.1497C59.254 75.9442 61.4781 77.1306 63.4601 78.6597C63.8271 78.9576 64.1622 79.2927 64.4601 79.6597C64.77 79.2414 65.1293 78.862 65.5301 78.5297C67.4801 76.9414 69.7174 75.7429 72.1201 74.9997C70.0007 71.9841 68.777 68.4308 68.5901 64.7497C68.6073 61.8257 69.7854 59.0284 71.8652 56.973C73.945 54.9176 76.7561 53.7725 79.6801 53.7897C82.6041 53.807 85.4015 54.9851 87.4569 57.0649C89.5123 59.1447 90.6573 61.9557 90.6401 64.8797C90.454 68.5626 89.2264 72.117 87.1001 75.1297C89.4758 75.9199 91.7006 77.1067 93.6801 78.6397C94.4411 79.2796 95.0673 80.0644 95.5223 80.9486ZM44.0624 59.5378C42.644 60.9057 41.8115 62.7704 41.7401 64.7397H41.7301C41.8623 67.436 42.6853 70.053 44.1201 72.3397C45.7001 74.9397 47.6201 76.4298 49.3501 76.4298C51.0801 76.4298 52.9901 74.9197 54.5801 72.2697C55.9839 69.9958 56.7985 67.4077 56.9501 64.7397C56.8787 62.7704 56.0462 60.9057 54.6278 59.5378C53.2093 58.1699 51.3156 57.4056 49.3451 57.4056C47.3746 57.4056 45.4808 58.1699 44.0624 59.5378ZM59.3301 92.8997H62.5201L62.5001 84.0498C62.5146 83.5219 62.4034 82.9981 62.1756 82.5217C61.9479 82.0453 61.61 81.6299 61.1901 81.3098C59.1633 79.6433 56.7605 78.4967 54.1901 77.9697C52.8151 79.2111 51.0419 79.9203 49.1901 79.9697C47.3583 79.896 45.6089 79.1891 44.2401 77.9697C41.6691 78.4891 39.2652 79.6328 37.2401 81.2998C36.8339 81.6357 36.5049 82.0552 36.2754 82.5297C36.0459 83.0043 35.9213 83.5228 35.9101 84.0498V92.8997H39.3601V87.8997C39.3531 87.6772 39.3918 87.4557 39.4738 87.2487C39.5558 87.0418 39.6793 86.8538 39.8367 86.6964C39.9941 86.5389 40.1821 86.4154 40.3891 86.3334C40.596 86.2515 40.8176 86.2127 41.0401 86.2197C41.2633 86.2097 41.4862 86.2464 41.6946 86.3273C41.9029 86.4082 42.0921 86.5316 42.2501 86.6896C42.4082 86.8477 42.5316 87.0369 42.6125 87.2452C42.6934 87.4535 42.73 87.6765 42.7201 87.8997V92.8997H55.9701V87.8997C55.9632 87.6772 56.0019 87.4557 56.0838 87.2487C56.1658 87.0418 56.2893 86.8538 56.4467 86.6964C56.6041 86.5389 56.7921 86.4154 56.9991 86.3334C57.206 86.2515 57.4276 86.2127 57.6501 86.2197C57.8734 86.2097 58.0962 86.2464 58.3046 86.3273C58.5129 86.4082 58.7021 86.5316 58.8601 86.6896C59.0181 86.8477 59.1415 87.0369 59.2225 87.2452C59.3034 87.4535 59.34 87.6765 59.3301 87.8997V92.8997ZM74.2724 59.5378C72.854 60.9057 72.0215 62.7704 71.9501 64.7397H71.9401C72.0723 67.436 72.8953 70.053 74.3301 72.3397C75.9101 74.9397 77.8201 76.4298 79.5501 76.4298C81.2801 76.4298 83.1901 74.9197 84.7801 72.2697C86.1863 69.9962 87.0042 67.4084 87.1601 64.7397C87.0887 62.7704 86.2562 60.9057 84.8377 59.5378C83.4193 58.1699 81.5256 57.4056 79.5551 57.4056C77.5845 57.4056 75.6908 58.1699 74.2724 59.5378ZM89.5201 92.8997H92.7301L92.7001 84.0498C92.713 83.5221 92.6011 82.9989 92.3734 82.5228C92.1458 82.0466 91.8088 81.631 91.3901 81.3098C89.361 79.6471 86.9591 78.5009 84.3901 77.9697C83.0151 79.2111 81.2419 79.9203 79.3901 79.9697C77.558 79.8976 75.808 79.1906 74.4401 77.9697C71.8691 78.4891 69.4652 79.6328 67.4401 81.2998C67.0347 81.6358 66.7069 82.0555 66.479 82.5302C66.2512 83.0049 66.1287 83.5233 66.1201 84.0498V92.8997H69.5701V87.8997C69.5701 87.4542 69.7471 87.0268 70.0621 86.7117C70.3772 86.3967 70.8045 86.2197 71.2501 86.2197C71.6957 86.2197 72.123 86.3967 72.438 86.7117C72.7531 87.0268 72.9301 87.4542 72.9301 87.8997V92.8997H86.1601V87.8997C86.1531 87.6772 86.1919 87.4557 86.2738 87.2487C86.3558 87.0418 86.4793 86.8538 86.6367 86.6964C86.7941 86.5389 86.9821 86.4154 87.1891 86.3334C87.396 86.2515 87.6176 86.2127 87.8401 86.2197C88.0634 86.2097 88.2862 86.2464 88.4946 86.3273C88.7029 86.4082 88.8921 86.5316 89.0501 86.6896C89.2081 86.8477 89.3315 87.0369 89.4125 87.2452C89.4934 87.4535 89.53 87.6765 89.5201 87.8997V92.8997ZM89.96 24.6899H80.21V28.2699H89.96V24.6899ZM77.0901 33.9502H85.0601C86.3517 33.9502 87.5904 34.4633 88.5037 35.3766C89.417 36.2899 89.9301 37.5286 89.9301 38.8202C89.9301 40.1118 89.417 41.3505 88.5037 42.2638C87.5904 43.1771 86.3517 43.6902 85.0601 43.6902H81.9701C80.6793 43.6902 79.4411 43.1788 78.5265 42.2679C77.6119 41.3571 77.0954 40.121 77.0901 38.8302V33.9502ZM82.0001 40.1101H85.0901C85.259 40.1114 85.4265 40.0794 85.583 40.0156C85.7394 39.9519 85.8817 39.8578 86.0016 39.7388C86.1216 39.6198 86.2168 39.4782 86.2817 39.3223C86.3467 39.1663 86.3801 38.9991 86.3801 38.8302C86.3814 38.6595 86.3491 38.4901 86.285 38.3319C86.2209 38.1737 86.1262 38.0296 86.0064 37.908C85.8866 37.7863 85.744 37.6895 85.5868 37.6229C85.4296 37.5564 85.2608 37.5215 85.0901 37.5201H80.7101V38.8302C80.7101 38.9991 80.7435 39.1663 80.8085 39.3223C80.8734 39.4782 80.9686 39.6198 81.0885 39.7388C81.2084 39.8578 81.3507 39.9519 81.5072 40.0156C81.6636 40.0794 81.8312 40.1114 82.0001 40.1101ZM89.96 6.18018H80.21V9.76018H89.96V6.18018ZM80.21 18.52H89.96V22.1H80.21V18.52ZM80.21 12.3501H89.96V15.9301H80.21V12.3501Z" fill="url(#paint0_linear)"/>
<defs>
<linearGradient id="paint0_linear" x1="0.0397949" y1="0" x2="96.201" y2="96.3218" gradientUnits="userSpaceOnUse">
<stop stop-color="#7AF498"/>
<stop offset="1" stop-color="#276280"/>
</linearGradient>
</defs>
</svg>
