<svg width="99" height="100" viewBox="0 0 99 100" fill="none" xmlns="http://www.w3.org/2000/svg">
<path fill-rule="evenodd" clip-rule="evenodd" d="M66.36 48.3897C66.5976 48.4012 66.835 48.3628 67.0569 48.2768C67.2787 48.1907 67.4802 48.0591 67.6479 47.8904C67.8157 47.7217 67.9461 47.5196 68.0309 47.2973C68.1156 47.0749 68.1529 46.8372 68.14 46.5996V34.7797C67.99 29.8397 62.7099 26.4997 57.6899 24.9597C60.118 21.5844 61.5082 17.5737 61.6899 13.4197C61.7462 11.7833 61.4738 10.1521 60.8889 8.62282C60.304 7.09349 59.4183 5.69698 58.2844 4.51576C57.1505 3.33455 55.7914 2.39268 54.2872 1.74574C52.7831 1.09881 51.1646 0.759982 49.5272 0.749285C47.8899 0.738588 46.267 1.05626 44.7545 1.68349C43.2421 2.31072 41.8707 3.23472 40.7214 4.40102C39.5722 5.56732 38.6685 6.95222 38.0636 8.47377C37.4587 9.99533 37.1651 11.6227 37.2 13.2597C37.3586 17.4211 38.7509 21.4415 41.2 24.8097C36.4 26.2897 30.91 29.6897 30.75 34.6297V46.4696C30.7663 46.9502 30.9552 47.4088 31.2821 47.7614C31.609 48.114 32.052 48.3371 32.5299 48.3897H66.36ZM49.4399 26.5197C44.9699 26.5197 40.7799 18.2396 40.7799 13.2396C40.8563 10.9925 41.8026 8.86298 43.4193 7.30031C45.036 5.73764 47.1965 4.86403 49.4449 4.86403C51.6934 4.86403 53.8539 5.73764 55.4706 7.30031C57.0872 8.86298 58.0336 10.9925 58.11 13.2396C58.11 18.2396 53.9099 26.5197 49.4399 26.5197ZM54.8999 27.8097C59.5299 28.8097 64.4199 31.5997 64.4199 34.8097V44.8097H60.4199V39.0597C60.4298 38.822 60.3903 38.5848 60.3038 38.3632C60.2174 38.1415 60.086 37.9402 59.9177 37.772C59.7495 37.6038 59.5482 37.4722 59.3265 37.3858C59.1049 37.2993 58.8677 37.2598 58.63 37.2697C58.3915 37.2567 58.153 37.2941 57.9299 37.3794C57.7069 37.4648 57.5042 37.5962 57.3353 37.765C57.1664 37.9339 57.0351 38.1366 56.9497 38.3596C56.8643 38.5827 56.827 38.8212 56.84 39.0597V44.7797H42.01V39.0297C42.01 38.5549 41.8214 38.0996 41.4857 37.7639C41.15 37.4282 40.6947 37.2396 40.22 37.2396C39.7452 37.2396 39.2899 37.4282 38.9542 37.7639C38.6185 38.0996 38.4299 38.5549 38.4299 39.0297V44.7797H34.3199V34.7797C34.3199 31.2597 39.97 28.7097 43.85 27.7797C45.3889 29.1721 47.3664 29.9823 49.4399 30.0697C51.4798 30.0045 53.4238 29.1891 54.8999 27.7797V27.8097ZM88.44 76.2997C90.8642 72.9186 92.2539 68.9059 92.44 64.7496C92.4868 63.1122 92.2047 61.482 91.6104 59.9554C91.0161 58.4289 90.1216 57.0371 88.9799 55.8623C87.8382 54.6875 86.4725 53.7537 84.9635 53.116C83.4546 52.4783 81.8331 52.1497 80.195 52.1497C78.5568 52.1497 76.9353 52.4783 75.4264 53.116C73.9175 53.7537 72.5517 54.6875 71.4101 55.8623C70.2684 57.0371 69.3739 58.4289 68.7796 59.9554C68.1852 61.482 67.9032 63.1122 67.95 64.7496C68.1086 68.9111 69.5009 72.9315 71.95 76.2997C67.15 77.7697 61.66 81.1796 61.5 86.1196V98.1196C61.4901 98.3573 61.5297 98.5945 61.6161 98.8162C61.7026 99.0378 61.834 99.2391 62.0022 99.4073C62.1704 99.5756 62.3718 99.7071 62.5934 99.7936C62.8151 99.88 63.0522 99.9196 63.2899 99.9097H97.12C97.3573 99.9197 97.5941 99.8801 97.8152 99.7936C98.0364 99.707 98.237 99.5754 98.4044 99.407C98.5719 99.2386 98.7024 99.0371 98.7877 98.8154C98.8731 98.5938 98.9112 98.3568 98.8999 98.1196V86.2697C98.7199 80.4497 91.77 77.4197 88.44 76.2997ZM89.57 88.7897C89.3319 88.7782 89.0941 88.8167 88.8717 88.9026C88.6494 88.9885 88.4474 89.12 88.2788 89.2886C88.1103 89.4571 87.9789 89.659 87.893 89.8813C87.8071 90.1037 87.7685 90.3416 87.7799 90.5797V96.3197H72.7799V90.5797C72.7799 90.105 72.5914 89.6497 72.2558 89.314C71.9201 88.9783 71.4648 88.7897 70.99 88.7897C70.5153 88.7897 70.06 88.9783 69.7243 89.314C69.3886 89.6497 69.2 90.105 69.2 90.5797V96.3197H65.2V86.3197C65.2 82.8097 70.85 80.2497 74.73 79.3197C78.55 82.3897 82.11 82.3897 85.93 79.3197C90.57 80.3197 95.45 83.1197 95.45 86.3197V96.3197H91.34V90.5797C91.3526 90.3426 91.3158 90.1053 91.2317 89.8832C91.1476 89.6611 91.0182 89.4589 90.8517 89.2896C90.6852 89.1202 90.4852 88.9874 90.2645 88.8997C90.0439 88.8119 89.8073 88.771 89.57 88.7797V88.7897ZM80.19 78.0297C75.72 78.0297 71.5299 69.7396 71.5299 64.7496C71.4904 63.587 71.6854 62.4283 72.1031 61.3425C72.5207 60.2567 73.1527 59.2661 73.9612 58.4297C74.7697 57.5932 75.7383 56.9279 76.8092 56.4736C77.8802 56.0193 79.0316 55.7853 80.195 55.7853C81.3583 55.7853 82.5097 56.0193 83.5807 56.4736C84.6517 56.9279 85.6203 57.5932 86.4289 58.4297C87.2374 59.2661 87.8692 60.2567 88.2869 61.3425C88.7046 62.4283 88.8995 63.587 88.86 64.7496C88.86 69.7796 84.66 78.0297 80.21 78.0297H80.19ZM30.9399 64.7496C30.7584 68.9067 29.3683 72.9207 26.9399 76.2997C30.2899 77.4297 37.21 80.4697 37.25 86.2997V98.1396C37.2614 98.3777 37.2229 98.6157 37.137 98.838C37.051 99.0604 36.9196 99.2622 36.7511 99.4308C36.5825 99.5993 36.3805 99.7307 36.1582 99.8167C35.9358 99.9026 35.698 99.9411 35.46 99.9297H1.78991C1.55263 99.9397 1.31587 99.9002 1.09472 99.8136C0.873569 99.727 0.672941 99.5953 0.505485 99.4269C0.338029 99.2585 0.207498 99.0571 0.122184 98.8354C0.03687 98.6138 -0.00131904 98.3769 0.0100016 98.1396V86.2997C0.180002 80.4597 7.11994 77.4297 10.4499 76.2997C8.00087 72.9315 6.60855 68.9111 6.44994 64.7496C6.40314 63.1122 6.68521 61.482 7.27953 59.9554C7.87385 58.4289 8.76835 57.0371 9.91003 55.8623C11.0517 54.6875 12.4174 53.7537 13.9264 53.116C15.4353 52.4783 17.0568 52.1497 18.6949 52.1497C20.3331 52.1497 21.9546 52.4783 23.4635 53.116C24.9724 53.7537 26.3382 54.6875 27.4799 55.8623C28.6215 57.0371 29.516 58.4289 30.1103 59.9554C30.7047 61.482 30.9867 63.1122 30.9399 64.7496ZM27.2417 88.9026C27.464 88.8167 27.7018 88.7782 27.9399 88.7897L27.9199 88.7797C28.1597 88.7667 28.3996 88.8043 28.6239 88.8901C28.8482 88.976 29.0517 89.1081 29.2215 89.278C29.3914 89.4478 29.5235 89.6515 29.6094 89.8757C29.6952 90.1 29.733 90.3399 29.72 90.5797V96.3197H33.8299V86.3197C33.8299 83.1197 28.9399 80.3197 24.2999 79.3197C20.4899 82.3897 16.93 82.3897 13.11 79.3197C9.22998 80.2497 3.57995 82.8097 3.57995 86.3197V96.3197H7.57995V90.5797C7.56155 90.3341 7.59404 90.0872 7.67541 89.8547C7.75677 89.6222 7.8853 89.409 8.05285 89.2284C8.2204 89.0478 8.42338 88.9038 8.64916 88.8053C8.87494 88.7068 9.11865 88.656 9.36498 88.656C9.61131 88.656 9.85502 88.7068 10.0808 88.8053C10.3066 88.9038 10.5096 89.0478 10.6771 89.2284C10.8447 89.409 10.9731 89.6222 11.0544 89.8547C11.1358 90.0872 11.1683 90.3341 11.1499 90.5797V96.3197H26.1499V90.5797C26.1385 90.3416 26.177 90.1037 26.2629 89.8813C26.3488 89.659 26.4802 89.4571 26.6488 89.2886C26.8173 89.12 27.0193 88.9885 27.2417 88.9026ZM10.0499 64.7496C10.0499 69.7359 14.2437 78.0174 18.7 78.0296C23.2161 78.0174 27.36 69.7759 27.38 64.7496C27.4195 63.587 27.2246 62.4283 26.8069 61.3425C26.3892 60.2567 25.7574 59.2661 24.9488 58.4297C24.1403 57.5932 23.1717 56.9279 22.1007 56.4736C21.0297 56.0193 19.8783 55.7853 18.715 55.7853C17.5516 55.7853 16.4002 56.0193 15.3292 56.4736C14.2582 56.9279 13.2896 57.5932 12.4811 58.4297C11.6726 59.2661 11.0407 60.2567 10.623 61.3425C10.2054 62.4283 10.0104 63.587 10.0499 64.7496ZM49.44 60.0397C47.9601 60.0397 46.5135 60.4787 45.2832 61.301C44.0529 62.1234 43.0943 63.2922 42.5285 64.6595C41.9626 66.0269 41.815 67.5314 42.1044 68.9827C42.3938 70.4339 43.1072 71.7667 44.1543 72.8124C45.2014 73.8581 46.5352 74.5697 47.9868 74.8572C49.4385 75.1447 50.9427 74.995 52.3094 74.4274C53.676 73.8597 54.8435 72.8995 55.6642 71.6681C56.4849 70.4367 56.9219 68.9895 56.9199 67.5096C56.9173 65.5276 56.1281 63.6275 54.7256 62.2269C53.3231 60.8263 51.4221 60.0397 49.44 60.0397ZM53.35 67.5096C53.352 68.2834 53.1244 69.0404 52.6959 69.6847C52.2675 70.329 51.6575 70.8317 50.9433 71.1292C50.229 71.4266 49.4425 71.5054 48.6834 71.3557C47.9243 71.206 47.2266 70.8344 46.6787 70.288C46.1309 69.7415 45.7575 69.0449 45.6059 68.2861C45.4542 67.5274 45.531 66.7407 45.8267 66.0256C46.1223 65.3106 46.6234 64.6994 47.2666 64.2693C47.9098 63.8392 48.6662 63.6096 49.44 63.6096C50.4752 63.6096 51.4682 64.0202 52.2012 64.7513C52.9342 65.4824 53.3474 66.4744 53.35 67.5096ZM63.51 77.8596V77.9397L63.4399 77.9896L60.0599 81.3696C59.7723 81.6984 59.3672 81.9014 58.9316 81.9351C58.4961 81.9687 58.0647 81.8304 57.73 81.5497L55.23 79.7797L54.74 79.9696L54.26 80.1497L53.8199 83.2296C53.7535 83.6608 53.5399 84.0557 53.2155 84.3473C52.891 84.6389 52.4757 84.8094 52.0399 84.8297H47.27C46.8372 84.8103 46.424 84.6427 46.1 84.3551C45.7759 84.0675 45.5606 83.6771 45.49 83.2496L45.0499 80.1497L44.5699 79.9696L44.08 79.7797L41.5699 81.5597C41.2307 81.8268 40.803 81.9557 40.3727 81.9204C39.9423 81.8852 39.5413 81.6883 39.25 81.3696L35.87 77.9896C35.5441 77.7023 35.3429 77.2994 35.3093 76.8662C35.2757 76.4331 35.4123 76.0038 35.6899 75.6697L37.46 73.1597C37.4 72.9897 37.3399 72.8297 37.2799 72.6797C37.2623 72.6357 37.2439 72.5909 37.2251 72.5452C37.1797 72.435 37.1324 72.3199 37.09 72.1997L34.01 71.7596C33.5799 71.6889 33.1871 71.4725 32.8976 71.1466C32.6081 70.8207 32.4394 70.4051 32.4199 69.9696V65.2097C32.4375 64.7763 32.6045 64.3623 32.8925 64.0378C33.1804 63.7134 33.5717 63.4986 34 63.4297L36.7799 62.9896L36.97 62.4996C37.03 62.353 37.0899 62.193 37.1499 62.0197L35.38 59.5096C35.1139 59.1707 34.9847 58.7442 35.0181 58.3146C35.0514 57.885 35.2448 57.4836 35.5599 57.1897L38.95 53.8097C39.2359 53.4815 39.6392 53.2788 40.0731 53.2451C40.507 53.2114 40.9369 53.3495 41.27 53.6296L43.7799 55.3997L44.26 55.2097L44.74 55.0297L45.1799 51.9497C45.2482 51.5193 45.4623 51.1254 45.7864 50.8341C46.1104 50.5428 46.5248 50.3718 46.96 50.3496H51.73C52.1643 50.3695 52.5785 50.5385 52.9027 50.8281C53.227 51.1178 53.4415 51.5104 53.51 51.9397L53.96 55.0297L54.4399 55.2097C54.4859 55.2281 54.5318 55.2474 54.5785 55.267C54.6846 55.3116 54.795 55.358 54.9199 55.3997L57.4299 53.6296C57.767 53.3591 58.1946 53.2271 58.6256 53.2605C59.0566 53.2939 59.4587 53.4903 59.75 53.8097L63.13 57.1897C63.298 57.3226 63.4343 57.4911 63.5294 57.683C63.6245 57.8749 63.6759 58.0855 63.6799 58.2997C63.7033 58.7371 63.5724 59.1689 63.3099 59.5197L61.5399 62.0197C61.5999 62.1897 61.66 62.3496 61.73 62.4996C61.79 62.6463 61.8499 62.8063 61.9099 62.9796L64.98 63.2697C65.4122 63.3358 65.8083 63.549 66.1016 63.8733C66.3949 64.1976 66.5674 64.613 66.59 65.0497V69.8197C66.5701 70.254 66.4011 70.6682 66.1115 70.9924C65.8218 71.3167 65.4293 71.5311 65 71.5996L61.9099 72.0497C61.8967 72.087 61.884 72.1239 61.8715 72.1603C61.827 72.2895 61.7846 72.4126 61.73 72.5297C61.66 72.6797 61.5999 72.8396 61.5399 73.0096L63.3099 75.5197C63.5127 75.8712 63.6357 76.263 63.6703 76.6674C63.7048 77.0717 63.6501 77.4787 63.51 77.8596ZM57.85 72.4497C58.2277 71.746 58.523 71.001 58.73 70.2296C58.8169 69.9042 58.9963 69.6109 59.2466 69.3855C59.4969 69.1601 59.8073 69.0122 60.14 68.9597L62.71 68.5297V66.7997L60.1599 66.3796C59.8133 66.3601 59.4835 66.2241 59.2239 65.9935C58.9643 65.763 58.7903 65.4515 58.73 65.1096C58.5606 64.3216 58.2597 63.5677 57.84 62.8796C57.6774 62.5645 57.6061 62.2103 57.6344 61.8568C57.6627 61.5034 57.7894 61.1649 58 60.8796L59.5699 58.7396L58.34 57.4996L56.2 59.0697C55.9322 59.3156 55.5899 59.4649 55.2275 59.4939C54.8652 59.5229 54.5034 59.4298 54.2 59.2296C53.4963 58.8494 52.7515 58.5509 51.98 58.3397C51.6533 58.2552 51.3588 58.0764 51.1329 57.8257C50.9071 57.575 50.76 57.2634 50.71 56.9297L50.2799 54.3496H48.5499L48.12 56.9097C48.1045 57.256 47.9711 57.5866 47.7419 57.8467C47.5128 58.1068 47.2016 58.2808 46.86 58.3397C46.0682 58.5071 45.3107 58.808 44.62 59.2296C44.3046 59.3911 43.9505 59.4617 43.5973 59.4335C43.2441 59.4052 42.9057 59.2793 42.62 59.0697L40.48 57.4996L39.25 58.7396L40.8099 60.8696C41.0527 61.1391 41.2 61.481 41.2289 61.8425C41.2578 62.2041 41.1668 62.565 40.97 62.8696C40.5898 63.5687 40.2943 64.3107 40.09 65.0797C40.0047 65.4078 39.8245 65.7032 39.5719 65.9292C39.3193 66.1552 39.0054 66.3014 38.6699 66.3496L36.09 66.7797V68.4896L38.6499 68.9197C38.9945 68.9374 39.3228 69.0717 39.5808 69.3007C39.8389 69.5296 40.0114 69.8397 40.0699 70.1797C40.2366 70.9733 40.5412 71.7314 40.97 72.4197C41.1292 72.7357 41.1985 73.0894 41.1703 73.4421C41.1421 73.7949 41.0174 74.133 40.8099 74.4197L39.24 76.5597L40.47 77.7897L42.61 76.2296C42.876 75.9805 43.2187 75.8291 43.582 75.8C43.9453 75.771 44.3077 75.8661 44.61 76.0697C45.3141 76.4491 46.0588 76.7477 46.83 76.9597C47.1572 77.0431 47.4524 77.2214 47.6785 77.4723C47.9045 77.7232 48.0512 78.0355 48.1 78.3696L48.5299 80.9497H50.26L50.6799 78.2396C50.699 77.8918 50.8348 77.5606 51.0652 77.2993C51.2956 77.0381 51.6072 76.8621 51.95 76.7997C52.7412 76.6304 53.4983 76.3296 54.1899 75.9097C54.5047 75.7459 54.8592 75.6741 55.2129 75.7024C55.5666 75.7307 55.9052 75.858 56.1899 76.0697L58.34 77.6396L59.5699 76.4097L58.02 74.2897C57.7786 74.0527 57.629 73.7376 57.5979 73.4008C57.5668 73.0639 57.6561 72.727 57.85 72.4497Z" fill="url(#paint0_linear)"/>
<defs>
<linearGradient id="paint0_linear" x1="0.00805664" y1="0.749023" x2="99.1903" y2="99.6424" gradientUnits="userSpaceOnUse">
<stop stop-color="#7AF498"/>
<stop offset="1" stop-color="#276280"/>
</linearGradient>
</defs>
</svg>
