<svg width="99" height="97" viewBox="0 0 99 97" fill="none" xmlns="http://www.w3.org/2000/svg">
<path fill-rule="evenodd" clip-rule="evenodd" d="M84.432 27.0005V9.63054C84.4453 8.36219 84.2054 7.10396 83.7262 5.92955C83.247 4.75514 82.5381 3.68821 81.6412 2.7913C80.7443 1.8944 79.6774 1.18556 78.503 0.706341C77.3286 0.227126 76.0703 -0.0128501 74.802 0.000530243H38.522C37.2536 -0.0128501 35.9953 0.227126 34.8209 0.706341C33.6465 1.18556 32.5796 1.8944 31.6827 2.7913C30.7858 3.68821 30.077 4.75514 29.5978 5.92955C29.1185 7.10396 28.8786 8.36219 28.8919 9.63054V41.7605C28.8894 42.0789 28.9691 42.3925 29.1233 42.6711C29.2774 42.9496 29.5009 43.1837 29.772 43.3506C30.042 43.5283 30.3586 43.6222 30.682 43.6205C30.9975 43.6218 31.3067 43.5315 31.572 43.3605L42.8919 36.7806H74.962C77.5059 36.7126 79.9219 35.6507 81.6922 33.8225C83.4624 31.9943 84.4459 29.5453 84.432 27.0005ZM42.3619 33.0505C42.0531 33.0264 41.744 33.0924 41.472 33.2405L32.472 38.4106V9.63054C32.472 8.03924 33.1041 6.51314 34.2293 5.38792C35.3545 4.2627 36.8807 3.63054 38.472 3.63054H74.902C75.6949 3.62261 76.4816 3.77195 77.2165 4.06993C77.9514 4.3679 78.6199 4.80862 79.1835 5.36656C79.747 5.9245 80.1943 6.58858 80.4996 7.32048C80.8048 8.05237 80.962 8.83753 80.962 9.63054V27.1506C80.97 27.9486 80.8187 28.7402 80.517 29.479C80.2153 30.2179 79.7692 30.8891 79.2049 31.4535C78.6406 32.0178 77.9693 32.4639 77.2305 32.7656C76.4916 33.0673 75.7 33.2186 74.902 33.2106H42.6119V33.0505H42.3619ZM46.192 22.4706L43.8719 22.1805C43.4464 22.1135 43.0562 21.9037 42.7655 21.5858C42.4747 21.2678 42.3007 20.8604 42.2719 20.4305V16.4305C42.2914 15.9977 42.4589 15.5847 42.7466 15.2606C43.0342 14.9366 43.4245 14.7212 43.852 14.6506L46.192 14.3605C46.2026 14.3365 46.2141 14.3138 46.225 14.2921C46.2551 14.2324 46.282 14.1792 46.282 14.1205C46.3097 14.0286 46.3431 13.9384 46.382 13.8506L44.9319 11.9706C44.6947 11.6262 44.5805 11.2118 44.6078 10.7945C44.635 10.3772 44.802 9.98123 45.0819 9.67053L47.8719 6.88055C48.0049 6.71258 48.1733 6.57618 48.3653 6.48108C48.5572 6.38598 48.7678 6.33457 48.982 6.33057C49.4189 6.31135 49.8493 6.44187 50.202 6.70056L52.0819 8.15057C52.2454 8.06019 52.416 7.98322 52.5919 7.92053L52.882 5.64056C52.9484 5.20942 53.162 4.81452 53.4864 4.52289C53.8109 4.23126 54.2262 4.06082 54.662 4.04053H58.662C59.0948 4.05995 59.5079 4.22756 59.8319 4.5152C60.156 4.80283 60.3713 5.19305 60.442 5.62054L60.732 7.90057C60.8903 7.94655 61.0417 8.01384 61.1819 8.10059H61.252L63.1219 6.66058C63.4581 6.38768 63.8862 6.25417 64.3179 6.28766C64.7496 6.32115 65.1519 6.51909 65.442 6.84058L68.2119 9.61053C68.5401 9.89644 68.7429 10.2998 68.7765 10.7338C68.8102 11.1677 68.6721 11.5974 68.3919 11.9305L66.942 13.8105L67.042 14.0806C67.052 14.1072 67.0653 14.1328 67.0786 14.1583C67.1053 14.2095 67.132 14.2606 67.132 14.3206L69.472 14.6105C69.9002 14.6794 70.2915 14.8943 70.5795 15.2187C70.8675 15.5431 71.0344 15.9571 71.0519 16.3906V20.3906C71.0344 20.824 70.8675 21.238 70.5795 21.5624C70.2915 21.8869 69.9002 22.1017 69.472 22.1705L67.132 22.4706C67.042 22.5506 67.042 22.6306 67.042 22.7006L66.942 22.9706L68.3919 24.8506C68.6632 25.1893 68.7955 25.6184 68.7621 26.0511C68.7287 26.4837 68.532 26.8875 68.2119 27.1805L65.442 29.9506C65.3106 30.1178 65.1438 30.2538 64.9536 30.3489C64.7634 30.444 64.5545 30.4958 64.3419 30.5005C63.9038 30.5169 63.4733 30.3828 63.1219 30.1205L61.2419 28.6805L60.972 28.7806L60.732 28.8605L60.442 31.1805C60.3776 31.6135 60.1649 32.0108 59.8403 32.3044C59.5157 32.598 59.0992 32.7698 58.662 32.7905H54.662C54.2276 32.7707 53.8135 32.6017 53.4892 32.3121C53.165 32.0224 52.9505 31.6299 52.882 31.2006L52.5919 28.8605L52.352 28.7806L52.0819 28.6805L50.202 30.1205C49.8635 30.3907 49.4356 30.5233 49.0037 30.4918C48.5717 30.4603 48.1676 30.267 47.8719 29.9506L45.1119 27.1805C44.7831 26.8929 44.5802 26.4879 44.5465 26.0523C44.5129 25.6167 44.6512 25.1853 44.9319 24.8506L46.382 22.9706C46.3415 22.8834 46.3081 22.7931 46.282 22.7006C46.2732 22.6802 46.2619 22.6589 46.2503 22.637C46.2221 22.5839 46.192 22.5273 46.192 22.4706ZM49.952 14.5306C49.6505 15.0961 49.4027 15.6887 49.2119 16.3005C49.1374 16.6162 48.9747 16.9041 48.7428 17.1307C48.5108 17.3574 48.2192 17.5134 47.9019 17.5806L45.9019 18.0005V18.8105L47.8419 19.0906C48.1883 19.1061 48.5189 19.2394 48.779 19.4686C49.0391 19.6977 49.213 20.009 49.2719 20.3506C49.4593 20.9684 49.7107 21.5649 50.0219 22.1306C50.1812 22.4466 50.2505 22.8002 50.2223 23.153C50.194 23.5057 50.0694 23.8439 49.8619 24.1306L48.752 25.6506L49.382 26.2806L51.2119 25.1606C51.4809 24.9162 51.8238 24.7687 52.1862 24.7415C52.5485 24.7143 52.9096 24.8091 53.2119 25.0106C53.7718 25.314 54.3617 25.5586 54.972 25.7405C55.2974 25.8256 55.5905 26.0048 55.8146 26.2556C56.0387 26.5064 56.1839 26.8177 56.232 27.1506L56.512 29.1506H57.312L57.5919 27.2106C57.607 26.8631 57.74 26.5311 57.9691 26.2693C58.1981 26.0075 58.5095 25.8316 58.852 25.7706C59.4737 25.5851 60.0737 25.3337 60.6419 25.0206C60.9529 24.8735 61.2973 24.8117 61.64 24.8416C61.9826 24.8715 62.3112 24.9919 62.5919 25.1906L64.1119 26.3005L64.732 25.6805L63.632 24.1606C63.3861 23.8928 63.2368 23.5505 63.2078 23.1881C63.1788 22.8257 63.2718 22.4641 63.472 22.1606C63.7779 21.5984 64.0227 21.005 64.202 20.3906C64.2894 20.0664 64.4692 19.7746 64.7196 19.5508C64.9699 19.3271 65.28 19.1811 65.6119 19.1306L67.3919 18.8705V17.8705L65.4619 17.5906C65.1162 17.5733 64.7865 17.4392 64.5268 17.2104C64.2671 16.9815 64.0926 16.6714 64.032 16.3306C63.8465 15.7089 63.595 15.1088 63.282 14.5405C63.1315 14.2322 63.0679 13.8888 63.0978 13.547C63.1278 13.2052 63.2502 12.8781 63.452 12.6006L64.702 11.0605L64.0919 10.4506L62.572 11.5505C62.3068 11.8013 61.9639 11.9539 61.6002 11.983C61.2364 12.0121 60.8736 11.916 60.572 11.7106C59.9714 11.3815 59.3289 11.1359 58.662 10.9805C58.3353 10.896 58.0407 10.7173 57.8149 10.4666C57.5891 10.2158 57.442 9.90424 57.3919 9.57056L57.1119 7.57056H56.312L56.032 9.48053C56.0187 9.82859 55.8863 10.1616 55.657 10.4237C55.4276 10.6858 55.1152 10.8612 54.7719 10.9205C54.0725 11.0725 53.3988 11.3251 52.7719 11.6705C52.4628 11.8178 52.1199 11.8797 51.7788 11.8498C51.4377 11.8199 51.1108 11.6993 50.8319 11.5005L49.312 10.3906L48.692 11.0106L49.792 12.5306C50.0378 12.7984 50.1871 13.1407 50.2161 13.5031C50.2451 13.8654 50.1522 14.2271 49.952 14.5306ZM37.762 74.7705C35.2191 72.8023 32.3482 71.2992 29.282 70.3305C32.0361 66.5741 33.6284 62.0926 33.8619 57.4405C33.8567 53.9095 32.4516 50.5245 29.9548 48.0277C27.4579 45.5308 24.073 44.1258 20.542 44.1205C17.0108 44.0858 13.6099 45.4527 11.0849 47.9215C8.55991 50.3903 7.1168 53.7594 7.07197 57.2905C7.30952 61.9401 8.89764 66.4196 11.6419 70.1805C8.54756 71.0804 5.66438 72.59 3.16197 74.6205C2.22191 75.3982 1.45508 76.3641 0.91084 77.456C0.366599 78.548 0.0570029 79.7417 0.00196532 80.9605V94.1805C-0.00946037 94.4186 0.0290278 94.6565 0.114941 94.8788C0.200855 95.1012 0.332285 95.3031 0.500836 95.4717C0.669387 95.6402 0.871324 95.7717 1.09367 95.8576C1.31602 95.9435 1.55388 95.982 1.79197 95.9706H39.1419C39.38 95.982 39.6179 95.9435 39.8403 95.8576C40.0626 95.7717 40.2645 95.6402 40.4331 95.4717C40.6016 95.3031 40.7331 95.1012 40.819 94.8788C40.9049 94.6565 40.9434 94.4186 40.932 94.1805V80.9405C40.838 79.7535 40.5094 78.597 39.9653 77.5379C39.4211 76.4788 38.6722 75.5382 37.762 74.7705ZM30.682 84.2505C30.4447 84.2392 30.2078 84.2775 29.9862 84.3628C29.7645 84.4481 29.5631 84.5786 29.3947 84.7461C29.2263 84.9135 29.0946 85.1142 29.0081 85.3354C28.9215 85.5565 28.882 85.7933 28.8919 86.0306V92.5705H11.8919V86.0505C11.9019 85.8132 11.8624 85.5765 11.7759 85.3554C11.6893 85.1342 11.5576 84.9335 11.3892 84.766C11.2208 84.5986 11.0194 84.468 10.7978 84.3827C10.5761 84.2974 10.3392 84.2592 10.102 84.2705C9.86476 84.2592 9.62777 84.2974 9.40614 84.3827C9.18451 84.468 8.98308 84.5986 8.81468 84.766C8.64628 84.9335 8.51461 85.1342 8.42805 85.3554C8.3415 85.5765 8.30197 85.8132 8.31196 86.0505V92.5705H3.43196V81.2705C3.44289 80.5719 3.60497 79.8839 3.90706 79.2538C4.20914 78.6238 4.64408 78.0665 5.18196 77.6205C7.78643 75.4886 10.8786 74.0354 14.182 73.3905C15.8537 74.8888 17.9985 75.7523 20.242 75.8305C22.4962 75.7753 24.6549 74.909 26.322 73.3905C29.6274 74.0351 32.7203 75.4922 35.322 77.6305C35.8831 78.0534 36.3348 78.6046 36.6393 79.2379C36.9438 79.8712 37.0921 80.5682 37.072 81.2705V92.5705H32.502V86.0505C32.5152 85.8089 32.4771 85.5673 32.39 85.3416C32.303 85.1159 32.169 84.9111 31.997 84.741C31.825 84.5709 31.6188 84.4392 31.3921 84.3547C31.1654 84.2701 30.9234 84.2346 30.682 84.2505ZM20.382 72.1006C18.112 72.1006 15.6519 70.2005 13.6419 66.8805C11.8478 63.9887 10.8156 60.6893 10.6419 57.2905C10.6419 54.7064 11.6678 52.2279 13.4941 50.3998C15.3204 48.5716 17.7978 47.5432 20.382 47.5405C22.9661 47.5432 25.4435 48.5716 27.2698 50.3998C29.0961 52.2279 30.122 54.7064 30.122 57.2905C30.122 62.8605 25.402 72.1006 20.382 72.1006ZM98.722 81.1006C98.6502 79.8867 98.3332 78.7 97.79 77.612C97.2469 76.5241 96.489 75.5575 95.562 74.7706C93.0214 72.8045 90.1542 71.3015 87.0919 70.3306C89.8394 66.5713 91.4279 62.0909 91.662 57.4406C91.6606 55.6892 91.3142 53.9553 90.6425 52.3378C89.9707 50.7204 88.9869 49.2512 87.7471 48.0142C86.5073 46.7772 85.0359 45.7966 83.417 45.1286C81.798 44.4605 80.0633 44.1179 78.312 44.1206C74.7801 44.1232 71.3936 45.5274 68.8962 48.0249C66.3988 50.5223 64.9946 53.9087 64.9919 57.4406C65.226 62.0909 66.8145 66.5713 69.562 70.3306C66.4693 71.2347 63.5869 72.7439 61.0819 74.7706C60.1537 75.5586 59.3951 76.5268 58.852 77.6166C58.3088 78.7064 57.9924 79.895 57.9219 81.1105V94.3406C57.9073 94.5782 57.9434 94.8161 58.0276 95.0387C58.1119 95.2612 58.2425 95.4634 58.4108 95.6317C58.5791 95.8 58.7813 95.9306 59.0038 96.0149C59.2264 96.0992 59.4644 96.1352 59.702 96.1206H96.912C97.1487 96.132 97.3853 96.0938 97.6064 96.0084C97.8275 95.923 98.0284 95.7923 98.196 95.6246C98.3636 95.457 98.4943 95.2562 98.5797 95.035C98.6651 94.8139 98.7034 94.5774 98.692 94.3406L98.722 81.1006ZM88.482 84.2506C88.2447 84.2393 88.0078 84.2775 87.7861 84.3628C87.5645 84.4481 87.3631 84.5787 87.1947 84.7461C87.0263 84.9136 86.8946 85.1143 86.808 85.3354C86.7215 85.5566 86.682 85.7933 86.692 86.0306V92.5706H69.692V86.0506C69.7019 85.8133 69.6624 85.5766 69.5758 85.3554C69.4893 85.1343 69.3576 84.9335 69.1892 84.7661C69.0208 84.5986 68.8194 84.4681 68.5978 84.3828C68.3761 84.2975 68.1392 84.2593 67.9019 84.2706C67.6647 84.2593 67.4278 84.2975 67.2061 84.3828C66.9845 84.4681 66.7831 84.5986 66.6147 84.7661C66.4463 84.9335 66.3146 85.1343 66.2281 85.3554C66.1415 85.5766 66.1019 85.8133 66.1119 86.0506V92.5706H61.232V81.2706C61.2428 80.5709 61.4058 79.882 61.7097 79.2517C62.0137 78.6214 62.4512 78.0647 62.9919 77.6206C65.5969 75.4894 68.6888 74.0362 71.9919 73.3906C73.6663 74.891 75.815 75.7547 78.062 75.8306C80.3098 75.7732 82.4615 74.9069 84.1219 73.3906C87.4102 74.0868 90.4914 75.5384 93.1219 77.6306C93.68 78.0557 94.1289 78.6075 94.4315 79.2404C94.734 79.8734 94.8816 80.5693 94.8619 81.2706V92.5706H90.312V86.0506C90.3254 85.8081 90.2869 85.5656 90.1993 85.3391C90.1117 85.1126 89.9768 84.9074 89.8037 84.7371C89.6305 84.5668 89.4231 84.4353 89.1952 84.3514C88.9673 84.2675 88.7242 84.2332 88.482 84.2506ZM78.1819 72.1006C73.1819 72.1006 68.442 62.8605 68.442 57.2905C68.4419 54.7064 69.4678 52.228 71.2941 50.3998C73.1204 48.5716 75.5978 47.5432 78.1819 47.5405C80.7661 47.5432 83.2434 48.5716 85.0698 50.3998C86.8961 52.228 87.9219 54.7064 87.9219 57.2905C87.9219 62.8605 83.2119 72.1006 78.1819 72.1006ZM60.551 22.2797C59.5196 23.3111 58.1206 23.8906 56.662 23.8906C55.9371 23.9 55.2177 23.7641 54.5461 23.491C53.8746 23.218 53.2645 22.8132 52.7519 22.3006C52.2393 21.788 51.8345 21.1779 51.5615 20.5064C51.2884 19.8349 51.1525 19.1154 51.162 18.3906C51.162 16.9319 51.7414 15.5329 52.7729 14.5015C53.8043 13.47 55.2033 12.8906 56.662 12.8906C58.1198 12.8932 59.5173 13.4735 60.5481 14.5044C61.579 15.5353 62.1593 16.9327 62.162 18.3906C62.162 19.8493 61.5825 21.2482 60.551 22.2797ZM54.3938 17.3188C54.2736 17.6179 54.2151 17.9383 54.222 18.2606C54.222 18.9077 54.479 19.5283 54.9366 19.9859C55.3942 20.4435 56.0148 20.7006 56.662 20.7006C57.3091 20.7006 57.9297 20.4435 58.3873 19.9859C58.8449 19.5283 59.102 18.9077 59.102 18.2606C59.1088 17.9383 59.0503 17.6179 58.9301 17.3188C58.8099 17.0197 58.6304 16.748 58.4025 16.52C58.1745 16.2921 57.9028 16.1126 57.6037 15.9924C57.3046 15.8722 56.9843 15.8137 56.662 15.8206C56.3397 15.8137 56.0193 15.8722 55.7202 15.9924C55.4211 16.1126 55.1494 16.2921 54.9214 16.52C54.6935 16.748 54.514 17.0197 54.3938 17.3188Z" fill="url(#paint0_linear)"/>
<defs>
<linearGradient id="paint0_linear" x1="0" y1="0" x2="96.0896" y2="98.6868" gradientUnits="userSpaceOnUse">
<stop stop-color="#7AF498"/>
<stop offset="1" stop-color="#276280"/>
</linearGradient>
</defs>
</svg>
